<?xml version="1.0" encoding="UTF-8" standalone="no"?><svg xmlns="http://www.w3.org/2000/svg" xmlns:xlink="http://www.w3.org/1999/xlink" contentStyleType="text/css" height="1432px" preserveAspectRatio="none" style="width:1583px;height:1432px;background:#FFFFFF;" version="1.1" viewBox="0 0 1583 1432" width="1583px" zoomAndPan="magnify"><defs/><g><!--MD5=[99b31deea5d7419a569cd5090bf83263]
cluster System--><g id="cluster_System"><rect fill="none" height="1419" rx="2.5" ry="2.5" style="stroke:#181818;stroke-width:1.0;" width="1429" x="148" y="7"/><text fill="#000000" font-family="sans-serif" font-size="14" font-weight="bold" lengthAdjust="spacing" textLength="58" x="833.5" y="21.9951">System</text></g><!--MD5=[4bac4d8356548010e1130c5cb17437c2]
cluster Step 1--><g id="cluster_Step 1"><rect fill="none" height="187" rx="2.5" ry="2.5" style="stroke:#181818;stroke-width:1.0;" width="1195" x="172" y="813"/><text fill="#000000" font-family="sans-serif" font-size="14" font-weight="bold" lengthAdjust="spacing" textLength="51" x="744" y="827.9951">Step 1</text></g><!--MD5=[3b19ec0ec461c069876295abe3226569]
cluster HMI--><g id="cluster_HMI"><rect fill="none" height="739" rx="2.5" ry="2.5" style="stroke:#181818;stroke-width:1.0;" width="1288" x="265" y="50"/><text fill="#000000" font-family="sans-serif" font-size="14" font-weight="bold" lengthAdjust="spacing" textLength="28" x="895" y="64.9951">HMI</text></g><!--MD5=[33fc1f151a665965d485d7de7ce13fa2]
cluster Step 4--><g id="cluster_Step 4"><rect fill="none" height="115" rx="2.5" ry="2.5" style="stroke:#181818;stroke-width:1.0;" width="930" x="257.5" y="1287"/><text fill="#000000" font-family="sans-serif" font-size="14" font-weight="bold" lengthAdjust="spacing" textLength="51" x="697" y="1301.9951">Step 4</text></g><!--MD5=[71a8e8eb3a1947cb420686b1f7889186]
cluster Step 5--><g id="cluster_Step 5"><rect fill="none" height="239" rx="2.5" ry="2.5" style="stroke:#181818;stroke-width:1.0;" width="1028.5" x="212" y="1024"/><text fill="#000000" font-family="sans-serif" font-size="14" font-weight="bold" lengthAdjust="spacing" textLength="51" x="700.75" y="1038.9951">Step 5</text></g><g id="elem_Compute Orowan model every 200ms with last available value"><ellipse cx="412.283" cy="925.7566" fill="#F1F1F1" rx="224.283" ry="47.2566" style="stroke:#181818;stroke-width:0.5;"/><text fill="#000000" font-family="sans-serif" font-size="14" lengthAdjust="spacing" textLength="423" x="200.783" y="928.6033">Compute Orowan model every 200ms with last available value</text></g><g id="elem_Compute average of last 5 orowan friction coefficient every 1s and store them into database"><ellipse cx="1024.0713" cy="915.8143" fill="#F1F1F1" rx="327.0713" ry="67.8143" style="stroke:#181818;stroke-width:0.5;"/><text fill="#000000" font-family="sans-serif" font-size="14" lengthAdjust="spacing" textLength="631" x="708.5713" y="918.6609">Compute average of last 5 orowan friction coefficient every 1s and store them into database</text></g><g id="elem_Login / logout"><ellipse cx="412.4333" cy="755.9867" fill="#F1F1F1" rx="70.4333" ry="16.4867" style="stroke:#181818;stroke-width:0.5;"/><text fill="#000000" font-family="sans-serif" font-size="14" lengthAdjust="spacing" textLength="94" x="362.4333" y="759.7342">Login / logout</text></g><g id="elem_Stand ID"><ellipse cx="412.3472" cy="608.2215" fill="#F1F1F1" rx="53.3472" ry="14.7215" style="stroke:#181818;stroke-width:0.5;"/><text fill="#000000" font-family="sans-serif" font-size="14" lengthAdjust="spacing" textLength="58" x="380.3472" y="611.969">Stand ID</text></g><g id="elem_Compute time of orowan"><ellipse cx="412.7042" cy="680.9408" fill="#F1F1F1" rx="102.7042" ry="22.9408" style="stroke:#181818;stroke-width:0.5;"/><text fill="#000000" font-family="sans-serif" font-size="14" lengthAdjust="spacing" textLength="170" x="327.7042" y="683.7875">Compute time of orowan</text></g><g id="elem_Friction coefficient factor"><ellipse cx="412.2923" cy="534.7585" fill="#F1F1F1" rx="101.7923" ry="22.7585" style="stroke:#181818;stroke-width:0.5;"/><text fill="#000000" font-family="sans-serif" font-size="14" lengthAdjust="spacing" textLength="168" x="328.2923" y="537.6051">Friction coefficient factor</text></g><g id="elem_Add / remove / update user"><ellipse cx="412.4443" cy="452.1889" fill="#F1F1F1" rx="111.4443" ry="24.6889" style="stroke:#181818;stroke-width:0.5;"/><text fill="#000000" font-family="sans-serif" font-size="14" lengthAdjust="spacing" textLength="189" x="317.9443" y="455.0355">Add / remove / update user</text></g><g id="elem_Add / remove / update user rights"><ellipse cx="412.6232" cy="114.2246" fill="#F1F1F1" rx="131.6232" ry="28.7246" style="stroke:#181818;stroke-width:0.5;"/><text fill="#000000" font-family="sans-serif" font-size="14" lengthAdjust="spacing" textLength="232" x="296.6232" y="117.0713">Add / remove / update user rights</text></g><g id="elem_Change application settings"><ellipse cx="412.3359" cy="202.9672" fill="#F1F1F1" rx="112.8359" ry="24.9672" style="stroke:#181818;stroke-width:0.5;"/><text fill="#000000" font-family="sans-serif" font-size="14" lengthAdjust="spacing" textLength="192" x="316.3359" y="205.8139">Change application settings</text></g><g id="elem_Enable / disable stand"><ellipse cx="412.5638" cy="284.8128" fill="#F1F1F1" rx="94.5638" ry="21.3128" style="stroke:#181818;stroke-width:0.5;"/><text fill="#000000" font-family="sans-serif" font-size="14" lengthAdjust="spacing" textLength="152" x="336.5638" y="287.6594">Enable / disable stand</text></g><g id="elem_Change level 2 inputs range"><ellipse cx="412.3004" cy="367.0601" fill="#F1F1F1" rx="113.3004" ry="25.0601" style="stroke:#181818;stroke-width:0.5;"/><text fill="#000000" font-family="sans-serif" font-size="14" lengthAdjust="spacing" textLength="193" x="315.8004" y="369.9068">Change level 2 inputs range</text></g><g id="elem_Show curves"><ellipse cx="1024.24" cy="725.048" fill="#F1F1F1" rx="68.24" ry="16.048" style="stroke:#181818;stroke-width:0.5;"/><text fill="#000000" font-family="sans-serif" font-size="14" lengthAdjust="spacing" textLength="88" x="977.24" y="728.7956">Show curves</text></g><g id="elem_Friction"><ellipse cx="1473.8761" cy="758.1644" fill="#F1F1F1" rx="47.3761" ry="14.6644" style="stroke:#181818;stroke-width:0.5;"/><text fill="#000000" font-family="sans-serif" font-size="14" lengthAdjust="spacing" textLength="50" x="1445.8761" y="761.9119">Friction</text></g><g id="elem_Roll speed"><ellipse cx="1474.0625" cy="693.0125" fill="#F1F1F1" rx="63.0625" ry="15.0125" style="stroke:#181818;stroke-width:0.5;"/><text fill="#000000" font-family="sans-serif" font-size="14" lengthAdjust="spacing" textLength="73" x="1434.5625" y="696.7601">Roll speed</text></g><g id="elem_Sigma"><ellipse cx="1473.9072" cy="628.0911" fill="#F1F1F1" rx="41.4072" ry="14.5911" style="stroke:#181818;stroke-width:0.5;"/><text fill="#000000" font-family="sans-serif" font-size="14" lengthAdjust="spacing" textLength="42" x="1449.982" y="631.8206">Sigma</text></g><g id="elem_Use the LII simulator based on gRpc"><ellipse cx="412.2578" cy="1353.1516" fill="#F1F1F1" rx="138.7578" ry="30.1516" style="stroke:#181818;stroke-width:0.5;"/><text fill="#000000" font-family="sans-serif" font-size="14" lengthAdjust="spacing" textLength="247" x="288.7578" y="1355.9982">Use the LII simulator based on gRpc</text></g><g id="elem_Use the orowan model based on gRpc"><ellipse cx="1023.8682" cy="1353.8736" fill="#F1F1F1" rx="147.3682" ry="31.8736" style="stroke:#181818;stroke-width:0.5;"/><text fill="#000000" font-family="sans-serif" font-size="14" lengthAdjust="spacing" textLength="265" x="891.3682" y="1356.7203">Use the orowan model based on gRpc</text></g><g id="elem_Store Level II data into a Time Series Database"><ellipse cx="412.4703" cy="1095.8941" fill="#F1F1F1" rx="172.4703" ry="36.8941" style="stroke:#181818;stroke-width:0.5;"/><text fill="#000000" font-family="sans-serif" font-size="14" lengthAdjust="spacing" textLength="317" x="253.9703" y="1098.7407">Store Level II data into a Time Series Database</text></g><g id="elem_Store Orowan results into a Time Series Database"><ellipse cx="412.6285" cy="1207.8257" fill="#F1F1F1" rx="184.6285" ry="39.3257" style="stroke:#181818;stroke-width:0.5;"/><text fill="#000000" font-family="sans-serif" font-size="14" lengthAdjust="spacing" textLength="342" x="241.6285" y="1210.6724">Store Orowan results into a Time Series Database</text></g><g id="elem_Show data from the Time Series Database into the HMI"><ellipse cx="1024.2427" cy="1153.0485" fill="#F1F1F1" rx="200.7427" ry="42.5485" style="stroke:#181818;stroke-width:0.5;"/><text fill="#000000" font-family="sans-serif" font-size="14" lengthAdjust="spacing" textLength="375" x="836.7427" y="1155.8952">Show data from the Time Series Database into the HMI</text></g><!--MD5=[6bb665717dfb7d467f5e0e6c38ac4b45]
entity PE--><g id="elem_PE"><ellipse cx="67" cy="255.5" fill="#F1F1F1" rx="8" ry="8" style="stroke:#181818;stroke-width:0.5;"/><path d="M67,263.5 L67,290.5 M54,271.5 L80,271.5 M67,290.5 L54,305.5 M67,290.5 L80,305.5 " fill="none" style="stroke:#181818;stroke-width:0.5;"/><text fill="#000000" font-family="sans-serif" font-size="14" lengthAdjust="spacing" textLength="122" x="6" y="319.9951">Process Engineer</text></g><!--MD5=[2b0f800f5e291cf066feaf8ec24b2082]
entity W--><g id="elem_W"><ellipse cx="67" cy="578.5" fill="#F1F1F1" rx="8" ry="8" style="stroke:#181818;stroke-width:0.5;"/><path d="M67,586.5 L67,613.5 M54,594.5 L80,594.5 M67,613.5 L54,628.5 M67,613.5 L80,628.5 " fill="none" style="stroke:#181818;stroke-width:0.5;"/><text fill="#000000" font-family="sans-serif" font-size="14" lengthAdjust="spacing" textLength="49" x="42.5" y="642.9951">Worker</text></g><!--MD5=[68f82070d0aec4ff4b64d9b1102926da]
entity E--><g id="elem_E"><ellipse cx="67" cy="726.5" fill="#F1F1F1" rx="8" ry="8" style="stroke:#181818;stroke-width:0.5;"/><path d="M67,734.5 L67,761.5 M54,742.5 L80,742.5 M67,761.5 L54,776.5 M67,761.5 L80,776.5 " fill="none" style="stroke:#181818;stroke-width:0.5;"/><text fill="#000000" font-family="sans-serif" font-size="14" lengthAdjust="spacing" textLength="64" x="35" y="790.9951">Everyone</text></g><!--MD5=[8ad42e69c823d91e931492f14bc2a1bb]
entity S--><g id="elem_S"><ellipse cx="67" cy="1122.5" fill="#F1F1F1" rx="8" ry="8" style="stroke:#181818;stroke-width:0.5;"/><path d="M67,1130.5 L67,1157.5 M54,1138.5 L80,1138.5 M67,1157.5 L54,1172.5 M67,1157.5 L80,1172.5 " fill="none" style="stroke:#181818;stroke-width:0.5;"/><text fill="#000000" font-family="sans-serif" font-size="14" lengthAdjust="spacing" textLength="51" x="41.5" y="1186.9951">System</text></g><!--MD5=[43071bd2a430c70b245c9d699a63ddc1]
link S to Compute Orowan model every 200ms with last available value--><g id="link_S_Compute Orowan model every 200ms with last available value"><path d="M86.01,1113.84 C98.48,1090.81 116.96,1062.29 140,1043 C179.48,1009.95 229.7,984.84 276.19,966.52 " fill="none" id="S-to-Compute Orowan model every 200ms with last available value" style="stroke:#181818;stroke-width:1.0;"/><polygon fill="#181818" points="280.96,964.66,271.1219,964.1998,276.3011,966.475,274.0259,971.6541,280.96,964.66" style="stroke:#181818;stroke-width:1.0;"/></g><!--MD5=[24693d2e5f8626ddf317a88315e49b0d]
link Compute Orowan model every 200ms with last available value to Compute average of last 5 orowan friction coefficient every 1s and store them into database--><g id="link_Compute Orowan model every 200ms with last available value_Compute average of last 5 orowan friction coefficient every 1s and store them into database"><path d="M636.56,922.34 C654.89,922.04 673.65,921.73 692.54,921.42 " fill="none" id="Compute Orowan model every 200ms with last available value-to-Compute average of last 5 orowan friction coefficient every 1s and store them into database" style="stroke:#181818;stroke-width:1.0;"/><polygon fill="#181818" points="697.87,921.33,688.8028,917.4849,692.8707,921.4157,688.9399,925.4837,697.87,921.33" style="stroke:#181818;stroke-width:1.0;"/></g><!--MD5=[7644a73b1da30d555fd665fd750e1c2f]
link E to Login / logout--><g id="link_E_Login / logout"><path d="M99.09,756 C152.31,756 262.3,756 336.52,756 " fill="none" id="E-to-Login / logout" style="stroke:#181818;stroke-width:1.0;"/><polygon fill="#181818" points="341.8,756,332.8,752,336.8,756,332.8,760,341.8,756" style="stroke:#181818;stroke-width:1.0;"/></g><!--MD5=[a6af2494700538ac100929dc204ed0bc]
link W to Stand ID--><g id="link_W_Stand ID"><path d="M91.61,608 C145.05,608 276.56,608 353.29,608 " fill="none" id="W-to-Stand ID" style="stroke:#181818;stroke-width:1.0;"/><polygon fill="#181818" points="358.72,608,349.72,604,353.72,608,349.72,612,358.72,608" style="stroke:#181818;stroke-width:1.0;"/></g><!--MD5=[d594050a0badd82716484dfd93c0daf2]
link W to Compute time of orowan--><g id="link_W_Compute time of orowan"><path d="M91.72,620.48 C105.47,627.22 123.32,635.13 140,640 C195.52,656.21 259.4,666.26 311.25,672.36 " fill="none" id="W-to-Compute time of orowan" style="stroke:#181818;stroke-width:1.0;"/><polygon fill="#181818" points="316.23,672.93,307.7456,667.9284,311.2627,672.359,306.8321,675.8761,316.23,672.93" style="stroke:#181818;stroke-width:1.0;"/></g><!--MD5=[3f54c6bdbb48e8212bc3acdd0b5c540d]
link W to Friction coefficient factor--><g id="link_W_Friction coefficient factor"><path d="M91.72,595.52 C105.47,588.78 123.32,580.87 140,576 C195.74,559.73 259.92,549.66 311.87,543.57 " fill="none" id="W-to-Friction coefficient factor" style="stroke:#181818;stroke-width:1.0;"/><polygon fill="#181818" points="316.86,542.99,307.4621,540.0439,311.8927,543.561,308.3756,547.9916,316.86,542.99" style="stroke:#181818;stroke-width:1.0;"/></g><!--MD5=[52972b94ed705f0ed0fc6de81a67cd28]
link PE to Add / remove / update user--><g id="link_PE_Add / remove / update user"><path d="M80.08,323.21 C91.08,351.52 110.23,388.59 140,409 C185.57,440.24 245.44,452.01 297.37,455.55 " fill="none" id="PE-to-Add / remove / update user" style="stroke:#181818;stroke-width:1.0;"/><polygon fill="#181818" points="302.37,455.86,293.6395,451.3017,297.3799,455.5454,293.1362,459.2859,302.37,455.86" style="stroke:#181818;stroke-width:1.0;"/></g><!--MD5=[ded953e0f2f47105a2cbdadfa165ad47]
link PE to Add / remove / update user rights--><g id="link_PE_Add / remove / update user rights"><path d="M79.95,246.87 C90.92,218.35 110.09,180.82 140,160 C179.28,132.66 229.35,119.67 275.77,113.99 " fill="none" id="PE-to-Add / remove / update user rights" style="stroke:#181818;stroke-width:1.0;"/><polygon fill="#181818" points="280.83,113.39,271.4228,110.4737,275.8645,113.9767,272.3615,118.4184,280.83,113.39" style="stroke:#181818;stroke-width:1.0;"/></g><!--MD5=[0d50800271bfe28accc79c255ed05e01]
link PE to Change application settings--><g id="link_PE_Change application settings"><path d="M128.23,250.51 C132.15,248.85 136.1,247.32 140,246 C191.34,228.6 250.58,218.17 300.6,211.96 " fill="none" id="PE-to-Change application settings" style="stroke:#181818;stroke-width:1.0;"/><polygon fill="#181818" points="305.72,211.34,296.2974,208.4739,300.7577,211.9532,297.2785,216.4135,305.72,211.34" style="stroke:#181818;stroke-width:1.0;"/></g><!--MD5=[919acd4693b44c852eba2730bdca6ed8]
link PE to Enable / disable stand--><g id="link_PE_Enable / disable stand"><path d="M128.23,285 C179.12,285 253.04,285 312.6,285 " fill="none" id="PE-to-Enable / disable stand" style="stroke:#181818;stroke-width:1.0;"/><polygon fill="#181818" points="317.96,285,308.96,281,312.96,285,308.96,289,317.96,285" style="stroke:#181818;stroke-width:1.0;"/></g><!--MD5=[3776089b649212fb22793fcb23bcbf46]
link PE to Change level 2 inputs range--><g id="link_PE_Change level 2 inputs range"><path d="M128.23,319.49 C132.15,321.15 136.1,322.68 140,324 C191.24,341.36 250.33,351.78 300.28,358 " fill="none" id="PE-to-Change level 2 inputs range" style="stroke:#181818;stroke-width:1.0;"/><polygon fill="#181818" points="305.39,358.63,296.9359,353.5775,300.4262,358.0292,295.9746,361.5196,305.39,358.63" style="stroke:#181818;stroke-width:1.0;"/></g><!--MD5=[10bde296eab0887e6455381f18133231]
link Login / logout to Show curves--><g id="link_Login / logout_Show curves"><path d="M481.64,752.53 C597.96,746.62 833.68,734.63 951.95,728.61 " fill="none" id="Login / logout-to-Show curves" style="stroke:#181818;stroke-width:1.0;"/><polygon fill="#181818" points="957.14,728.35,947.9459,724.8189,952.1466,728.6075,948.358,732.8083,957.14,728.35" style="stroke:#181818;stroke-width:1.0;"/></g><!--MD5=[8c4db8652ce14a164a23e465a3b4d38f]
link Show curves to Friction--><g id="link_Show curves_Friction"><path d="M1089.19,729.73 C1179.03,736.35 1340.45,748.24 1422.36,754.27 " fill="none" id="Show curves-to-Friction" style="stroke:#181818;stroke-width:1.0;"/><polygon fill="#181818" points="1427.64,754.66,1418.962,750.0024,1422.6538,754.2885,1418.3677,757.9803,1427.64,754.66" style="stroke:#181818;stroke-width:1.0;"/></g><!--MD5=[5757e90a5a861f176d8651e072db0a46]
link Show curves to Roll speed--><g id="link_Show curves_Roll speed"><path d="M1089.19,720.42 C1174.11,714.35 1322.98,703.72 1408.21,697.63 " fill="none" id="Show curves-to-Roll speed" style="stroke:#181818;stroke-width:1.0;"/><polygon fill="#181818" points="1413.23,697.27,1403.9672,693.9233,1408.2428,697.6273,1404.5388,701.9028,1413.23,697.27" style="stroke:#181818;stroke-width:1.0;"/></g><!--MD5=[df76019d6e569a9ba3d5e0c1627351a5]
link Show curves to Sigma--><g id="link_Show curves_Sigma"><path d="M1074.66,714.25 C1164.27,694.85 1351.31,654.35 1433.18,636.62 " fill="none" id="Show curves-to-Sigma" style="stroke:#181818;stroke-width:1.0;"/><polygon fill="#181818" points="1438.42,635.49,1428.7788,633.478,1433.5325,636.5445,1430.466,641.2981,1438.42,635.49" style="stroke:#181818;stroke-width:1.0;"/></g><!--MD5=[015b8f1138bdcd838a2f1fa015ca3635]
link S to Use the LII simulator based on gRpc--><g id="link_S_Use the LII simulator based on gRpc"><path d="M84.6,1190.25 C96.78,1214.21 115.46,1244.04 140,1263 C185.59,1298.22 245.61,1320 297.63,1333.29 " fill="none" id="S-to-Use the LII simulator based on gRpc" style="stroke:#181818;stroke-width:1.0;"/><polygon fill="#181818" points="302.63,1334.55,294.8731,1328.4812,297.7801,1333.334,292.9274,1336.241,302.63,1334.55" style="stroke:#181818;stroke-width:1.0;"/></g><!--MD5=[a864225cf587eca53667175c65d9684a]
link Use the LII simulator based on gRpc to Use the orowan model based on gRpc--><g id="link_Use the LII simulator based on gRpc_Use the orowan model based on gRpc"><path d="M551.8,1353.23 C646.95,1353.38 773.33,1353.59 871.25,1353.75 " fill="none" id="Use the LII simulator based on gRpc-to-Use the orowan model based on gRpc" style="stroke:#181818;stroke-width:1.0;"/><polygon fill="#181818" points="876.47,1353.76,867.4815,1349.7343,871.47,1353.7457,867.4586,1357.7343,876.47,1353.76" style="stroke:#181818;stroke-width:1.0;"/></g><!--MD5=[c9c36acc914fa029f44b0695d40a5b39]
link S to Store Level II data into a Time Series Database--><g id="link_S_Store Level II data into a Time Series Database"><path d="M92.7,1147.97 C129.81,1141.92 202.71,1130.04 269.45,1119.16 " fill="none" id="S-to-Store Level II data into a Time Series Database" style="stroke:#181818;stroke-width:1.0;"/><polygon fill="#181818" points="274.65,1118.31,265.1183,1115.8306,269.7169,1119.125,266.4224,1123.7236,274.65,1118.31" style="stroke:#181818;stroke-width:1.0;"/></g><!--MD5=[666f676aedd486ab99b854c6872e4114]
link S to Store Orowan results into a Time Series Database--><g id="link_S_Store Orowan results into a Time Series Database"><path d="M92.7,1156.03 C128.09,1161.8 196.02,1172.87 260.11,1183.32 " fill="none" id="S-to-Store Orowan results into a Time Series Database" style="stroke:#181818;stroke-width:1.0;"/><polygon fill="#181818" points="265.11,1184.13,256.8799,1178.7203,260.1765,1183.3173,255.5795,1186.6139,265.11,1184.13" style="stroke:#181818;stroke-width:1.0;"/></g><!--MD5=[b7762ba476a4f255e237917bcd34c0bf]
link Store Level II data into a Time Series Database to Show data from the Time Series Database into the HMI--><g id="link_Store Level II data into a Time Series Database_Show data from the Time Series Database into the HMI"><path d="M570.86,1110.72 C651.61,1118.27 750.55,1127.52 835.26,1135.44 " fill="none" id="Store Level II data into a Time Series Database-to-Show data from the Time Series Database into the HMI" style="stroke:#181818;stroke-width:1.0;"/><polygon fill="#181818" points="840.31,1135.91,831.7278,1131.0782,835.3323,1135.438,830.9726,1139.0425,840.31,1135.91" style="stroke:#181818;stroke-width:1.0;"/></g><!--MD5=[fe28a66c3785c9fcc2b5ff9b14cce583]
link Store Orowan results into a Time Series Database to Show data from the Time Series Database into the HMI--><g id="link_Store Orowan results into a Time Series Database_Show data from the Time Series Database into the HMI"><path d="M582.87,1192.72 C660.86,1185.68 753.7,1177.3 833.96,1170.06 " fill="none" id="Store Orowan results into a Time Series Database-to-Show data from the Time Series Database into the HMI" style="stroke:#181818;stroke-width:1.0;"/><polygon fill="#181818" points="839.23,1169.58,829.9114,1166.392,834.2496,1170.0224,830.6192,1174.3606,839.23,1169.58" style="stroke:#181818;stroke-width:1.0;"/></g><!--MD5=[d928c0773ecce4dd25eb1b5d1204c666]
@startuml
left to right direction

actor "Process Engineer" as PE
actor "Worker" as W
actor "Everyone" as E
actor "System" as S

rectangle "System" {
  rectangle "Step 1" {
    S - -> (Compute Orowan model every 200ms with last available value)
    (Compute Orowan model every 200ms with last available value) - -> (Compute average of last 5 orowan friction coefficient every 1s and store them into database)
  }
  rectangle "HMI" {
    E - -> (Login / logout)
    W - -> (Stand ID)
    W - -> (Compute time of orowan)
    W - -> (Friction coefficient factor)
    PE - -> (Add / remove / update user)
    PE - -> (Add / remove / update user rights)
    PE - -> (Change application settings)
    PE - -> (Enable / disable stand)
    PE - -> (Change level 2 inputs range)
    (Login / logout) - -> (Show curves)
    (Show curves) - -> (Friction)
    (Show curves) - -> (Roll speed)
    (Show curves) - -> (Sigma)
  }

  rectangle "Step 4" {
    S - -> (Use the LII simulator based on gRpc)
    (Use the LII simulator based on gRpc) - -> (Use the orowan model based on gRpc)
  }
  rectangle "Step 5" {
    S - -> (Store Level II data into a Time Series Database) 
    S - -> (Store Orowan results into a Time Series Database)
    (Store Level II data into a Time Series Database) - -> (Show data from the Time Series Database into the HMI)
    (Store Orowan results into a Time Series Database) - -> (Show data from the Time Series Database into the HMI)
  }
}
@enduml

PlantUML version 1.2022.7(Mon Aug 22 17:01:30 UTC 2022)
(GPL source distribution)
Java Runtime: OpenJDK Runtime Environment
JVM: OpenJDK 64-Bit Server VM
Default Encoding: UTF-8
Language: en
Country: null
--></g></svg>